# xmcd
#
# Track frame offsets:
#	150
#	15170
#	27127
#	43492
#	57462
#	70070
#	84022
#	102605
#	114520
#	129250
#	143355
#	156885
#	168005
#	181825
#	196957
#	209942
#	229650
#	243675
#	258067
#	274847
#	290370
#	301910
#
# Disc length: 4272 seconds
#
# Revision: 1
# Processed by: cddbd v1.5.2PL0 Copyright (c) Steve Scherf et al.
# Submitted via: EasyCDDAExtractor 11.1.0.1
#
DISCID=2a10ae16
DTITLE=Various Artist - Chart Breakers Cgc-533
DYEAR=1900
DGENRE=Country
TTITLE0=Ricky Skaggs - Heartbroke
TTITLE1=Charley Pride - I Don't Think She's In Love Anymore
TTITLE2=Johnny Lee - Lookin' For Love
TTITLE3=Waylon Jennings - Drinkin' And Dreamin'
TTITLE4=Johnny Cash - Folsom Prison Blues (Live)
TTITLE5=George Jones And Tammy Wynette - Golden Role
TTITLE6=Crystal Gayle - Half The Way
TTITLE7=Vern Gosdin - I Can Tell By The Way You Dance
TTITLE8=Tanya Tucker - Just Another Love
TTITLE9=Waylon Jennings, Willie Nelson, Johnny Cash and Kris Kristofferson - Hig
TTITLE9=hwayman
TTITLE10=Larry Gatlin and The Gatlin Brothers - Houston (Means I'm One Day Close
TTITLE10=r To You)
TTITLE11=Eddy Raven - I Got Mexico
TTITLE12=Barbara Mandrell - Fooled By A Feeling
TTITLE13=George Jones - He Stopped Loving Her Today
TTITLE14=Patsy Cline - I Fall To Pieces
TTITLE15=Kenny Rogers - Coward Of The County
TTITLE16=John Conlee - Lady Lay Down
TTITLE17=Forrester Sisters - Leave It Alone
TTITLE18=Barbara Mandrell - I Was Country When Country Wasn't Cool
TTITLE19=Oak Ridge Boys - Lucky Moon
TTITLE20=Hank Williams Jr - Mind Your Own Business
TTITLE21=Randy Travis - No Place Like Home
EXTD=YEAR: 1900
EXTT0=
EXTT1=
EXTT2=
EXTT3=
EXTT4=
EXTT5=
EXTT6=
EXTT7=
EXTT8=
EXTT9=
EXTT10=
EXTT11=
EXTT12=
EXTT13=
EXTT14=
EXTT15=
EXTT16=
EXTT17=
EXTT18=
EXTT19=
EXTT20=
EXTT21=
PLAYORDER=
